<svg id="Layer_2" data-name="Layer 2" xmlns="http://www.w3.org/2000/svg" viewBox="0 0 1366 768"><defs><style>.cls-1{fill:#a945e7;stroke:#000;stroke-miterlimit:10;stroke-width:2.5px;}</style></defs><circle class="cls-1" cx="552.26" cy="235.68" r="35.8"/><polygon class="cls-1" points="519.42 283.23 523.5 411.56 583.45 357.54 581.02 281.27 519.42 283.23"/><path class="cls-1" d="M526.43,432.87v64.56L692,350.7a110.64,110.64,0,0,1,15.26-13.5c10-7.37,27-19.9,49.3-20.55,27-.79,46.38,16.19,51.65,21.13L841,295.52c-6.71-5.7-46.69-38.53-103.3-31.69-44.14,5.32-71.69,31.54-79.83,39.91Z"/><path class="cls-1" d="M587.92,460.06l-4.75,4.05-55.53,47.3c9.4,19.12,2.76,39.27-7.92,44.5-11.4,5.59-32.39-3.38-39-25.86l-58.25,5.69c.38,2.23,10.26,55.32,58.3,74.28,28,11,60.12,7,83.55-11.45,32.49-25.58,41.9-93.33,23.61-138.51"/><path class="cls-1" d="M662.56,430.42c11.45,10.74,48,42.3,91.14,35.54A68.54,68.54,0,0,0,768,462.32c12.72-5.86,25.69-20,23-32.32-.45-2.05-1.84-6.42-8.85-12-15.5-12.38-33.16-10.51-53.34-12.86a169.1,169.1,0,0,1-48.62-13.45l38.74-35.21A114,114,0,0,1,780.4,353c3.92.9,55.89,13.16,75.76,58.39,3.46,7.88,9.47,22.07,6.25,39.47-3.71,20.05-17.44,32.33-26,39.75-31.36,27.27-70.68,28.55-82.66,28.77C691.3,520.55,647.83,480.27,637,469.64Z"/></svg>